<?xml version="1.0" encoding="utf-8"?>
<!-- Generator: Adobe Illustrator 23.0.4, SVG Export Plug-In . SVG Version: 6.00 Build 0)  -->
<svg version="1.1" id="Layer_1" xmlns="http://www.w3.org/2000/svg" xmlns:xlink="http://www.w3.org/1999/xlink" x="0px" y="0px"
	 viewBox="0 0 25 25" style="enable-background:new 0 0 25 25;" xml:space="preserve">
<style type="text/css">
	.st0{fill:#22C7D0;}
</style>
<title>Asset 1</title>
<g>
	<g id="Capa_1">
		<path class="st0" d="M22.8,25c0.6,0,1.1-0.3,1.5-0.7l-7.1-9l-0.5,0.4c-0.5,0.5-1,0.9-1.3,1.2c-0.4,0.3-0.9,0.6-1.3,0.9
			c-0.5,0.3-1,0.4-1.5,0.4l0,0c-0.5,0-1.1-0.2-1.5-0.4c-0.5-0.2-0.9-0.5-1.3-0.9c-0.3-0.3-0.8-0.7-1.3-1.2l-0.5-0.4l-7.1,9
			C1.2,24.7,1.7,25,2.3,25L22.8,25z"/>
		<path class="st0" d="M1.4,9.6c-0.5-0.5-1-1-1.4-1.5v13.7l6.2-8C5,12.7,3.4,11.3,1.4,9.6z"/>
		<path class="st0" d="M23.6,9.6c-1.9,1.6-3.5,3-4.8,4.2l6.2,8V8.1C24.6,8.6,24.1,9.2,23.6,9.6z"/>
		<path class="st0" d="M22.8,0H2.2C1.6,0,0.9,0.3,0.6,0.9C0.2,1.6,0,2.4,0,3.2c0,0.9,0.3,1.7,0.8,2.4c0.4,0.8,1,1.5,1.6,2l2.9,2.5
			l2.2,2l1.4,1.3l0.2,0.2L9.5,14c0.3,0.3,0.5,0.5,0.7,0.7s0.4,0.4,0.7,0.6c0.2,0.2,0.5,0.4,0.8,0.5c0.2,0.1,0.5,0.2,0.7,0.2l0,0
			c0.2,0,0.5-0.1,0.7-0.2c0.3-0.1,0.6-0.3,0.8-0.5c0.3-0.2,0.5-0.4,0.7-0.6c0.2-0.2,0.4-0.4,0.7-0.7l0.4-0.3l0.2-0.2l1.4-1.2
			c1.1-1,2.9-2.5,5.1-4.5c0.7-0.6,1.3-1.4,1.7-2.2C24.8,4.7,25,3.8,25,2.8c0-0.7-0.2-1.4-0.7-2C24,0.3,23.4,0,22.8,0z"/>
	</g>
</g>
</svg>
