<?xml version="1.0" encoding="utf-8"?>
<!-- Generator: Adobe Illustrator 23.0.4, SVG Export Plug-In . SVG Version: 6.00 Build 0)  -->
<svg version="1.1" id="Layer_1" xmlns="http://www.w3.org/2000/svg" xmlns:xlink="http://www.w3.org/1999/xlink" x="0px" y="0px"
	 viewBox="0 0 25 25" style="enable-background:new 0 0 25 25;" xml:space="preserve">
<style type="text/css">
	.st0{fill:#22C7D0;}
</style>
<title>Asset 1</title>
<g>
	<g id="Capa_1">
		<path class="st0" d="M16.6,17.5c0.2,0,0.4-0.1,0.6-0.3l-2.8-3.6l-0.2,0.2c-0.2,0.2-0.4,0.4-0.5,0.5c-0.2,0.1-0.3,0.2-0.5,0.3
			c-0.2,0.1-0.4,0.2-0.6,0.2l0,0c-0.2,0-0.4-0.1-0.6-0.2c-0.2-0.1-0.4-0.2-0.5-0.3c-0.1-0.1-0.3-0.3-0.5-0.5l-0.2-0.2l-2.8,3.6
			c0.1,0.2,0.4,0.3,0.6,0.3L16.6,17.5z"/>
		<path class="st0" d="M8.1,11.3c-0.2-0.2-0.4-0.4-0.6-0.6v5.5L10,13C9.5,12.6,8.9,12,8.1,11.3z"/>
		<path class="st0" d="M16.9,11.3C16.2,12,15.5,12.6,15,13l2.5,3.2v-5.5C17.3,11,17.1,11.2,16.9,11.3z"/>
		<path class="st0" d="M16.6,7.5H8.4c-0.3,0-0.5,0.1-0.7,0.4C7.6,8.1,7.5,8.5,7.5,8.8c0,0.3,0.1,0.7,0.3,1c0.2,0.3,0.4,0.6,0.7,0.8
			l1.1,1l0.9,0.8l0.6,0.5l0.1,0.1l0.2,0.1c0.1,0.1,0.2,0.2,0.3,0.3c0.1,0.1,0.2,0.1,0.3,0.2c0.1,0.1,0.2,0.1,0.3,0.2
			c0.1,0,0.2,0.1,0.3,0.1l0,0c0.1,0,0.2,0,0.3-0.1c0.1-0.1,0.2-0.1,0.3-0.2c0.1-0.1,0.2-0.2,0.3-0.2c0.1-0.1,0.2-0.2,0.3-0.3
			l0.2-0.1l0.1-0.1l0.6-0.5c0.5-0.4,1.1-1,2-1.8c0.3-0.3,0.5-0.5,0.7-0.9c0.2-0.3,0.3-0.7,0.3-1.1c0-0.3-0.1-0.6-0.3-0.8
			C17.1,7.6,16.9,7.5,16.6,7.5z"/>
	</g>
</g>
</svg>
