<svg xmlns="http://www.w3.org/2000/svg" viewBox="0 0 25 25"><defs><style>.cls-1{fill:#22c7d0;}</style></defs><title>Asset 1</title><g id="Layer_2" data-name="Layer 2"><g id="Capa_1" data-name="Capa 1"><path class="cls-1" d="M22.77,25a1.91,1.91,0,0,0,1.46-.7l-7.08-9-.49.45c-.53.5-1,.89-1.29,1.16a7.37,7.37,0,0,1-1.32.86,3.31,3.31,0,0,1-1.54.43h0A3.31,3.31,0,0,1,11,17.75a7.37,7.37,0,0,1-1.32-.86c-.33-.27-.76-.66-1.29-1.16l-.49-.45-7.08,9a1.91,1.91,0,0,0,1.46.7Z"/><path class="cls-1" d="M1.41,9.61A8.34,8.34,0,0,1,0,8.06V21.78l6.24-8Q4.37,12.17,1.41,9.61Z"/><path class="cls-1" d="M23.6,9.61q-2.85,2.45-4.84,4.22l6.24,8V8.06A8.92,8.92,0,0,1,23.6,9.61Z"/><path class="cls-1" d="M22.77,0H2.23A1.86,1.86,0,0,0,.58.92,4.26,4.26,0,0,0,0,3.23,4.9,4.9,0,0,0,.77,5.66,8,8,0,0,0,2.4,7.71l2.86,2.53,2.25,2,1.4,1.26.21.19.39.35c.3.28.55.5.75.67s.44.37.73.58a4.12,4.12,0,0,0,.8.48,1.72,1.72,0,0,0,.7.16h0a1.72,1.72,0,0,0,.7-.16,4.12,4.12,0,0,0,.8-.48c.29-.21.53-.41.73-.58s.45-.39.75-.67l.39-.35.21-.19,1.41-1.25c1.15-1,2.86-2.53,5.11-4.52a8.07,8.07,0,0,0,1.71-2.19A5.65,5.65,0,0,0,25,2.84a3.15,3.15,0,0,0-.66-2A2,2,0,0,0,22.77,0Z"/></g></g></svg>