<svg xmlns="http://www.w3.org/2000/svg" viewBox="0 0 25 25"><defs><style>.cls-1{fill:#22c7d0;}</style></defs><title>Asset 1</title><g id="Layer_2" data-name="Layer 2"><g id="Capa_1" data-name="Capa 1"><path class="cls-1" d="M24.36,18.45l-3.11-3.11a2.25,2.25,0,0,0-3.11,0l-.52.52,6.22,6.21.52-.52A2.19,2.19,0,0,0,24.36,18.45Z"/><path class="cls-1" d="M16.56,16.86a1.65,1.65,0,0,1-2.19-.11L8.23,10.6a1.64,1.64,0,0,1-.11-2.18l-6.2-6.2A7.9,7.9,0,0,0,2.3,13L12,22.68a7.86,7.86,0,0,0,10.74.38Z"/><path class="cls-1" d="M9.64,3.73,6.54.62a2.25,2.25,0,0,0-3.11,0l-.52.52L9.13,7.36l.51-.52A2.2,2.2,0,0,0,9.64,3.73Z"/></g></g></svg>